HIERARCHY
ROOT HipCenter
{
    OFFSET 0.0 0.0 -0.0
    CHANNELS 6 Xposition Yposition Zposition Zrotation Xrotation Yrotation
    JOINT Spine
    {
        OFFSET 0.0 31.88557243347168 0.0
        CHANNELS 3 Zrotation Xrotation Yrotation
        JOINT ShoulderCenter
        {
            OFFSET 0.0 23.443052291870117 0.0
            CHANNELS 3 Zrotation Xrotation Yrotation
            JOINT LeftShoulder
            {
                OFFSET 18.49569320678711 0.0 0.0
                CHANNELS 3 Zrotation Xrotation Yrotation
                JOINT LeftElbow
                {
                    OFFSET 22.097511291503906 0.0 0.0
                    CHANNELS 3 Zrotation Xrotation Yrotation
                    JOINT LeftWrist
                    {
                        OFFSET 20.92664337158203 0.0 0.0
                        CHANNELS 3 Zrotation Xrotation Yrotation
                        JOINT LeftHand
                        {
                            OFFSET 5.7306413650512695 0.0 0.0
                            CHANNELS 3 Zrotation Xrotation Yrotation
                            End Site
                            {
                                OFFSET 2.2922565937042236 0.0 0.0
                            }
                        }
                    }
                }
            }
            JOINT RightShoulder
            {
                OFFSET -18.49569320678711 0.0 0.0
                CHANNELS 3 Zrotation Xrotation Yrotation
                JOINT RightElbow
                {
                    OFFSET -22.097511291503906 0.0 0.0
                    CHANNELS 3 Zrotation Xrotation Yrotation
                    JOINT RightWrist
                    {
                        OFFSET -20.92664337158203 0.0 0.0
                        CHANNELS 3 Zrotation Xrotation Yrotation
                        JOINT RightHand
                        {
                            OFFSET -5.7306413650512695 0.0 0.0
                            CHANNELS 3 Zrotation Xrotation Yrotation
                            End Site
                            {
                                OFFSET -2.2922565937042236 0.0 0.0
                            }
                        }
                    }
                }
            }
            End Site
            {
                OFFSET 0.0 9.37722110748291 0.0
            }
        }
    }
    JOINT LeftHip
    {
        OFFSET 7.646137714385986 0.0 0.0
        CHANNELS 3 Zrotation Xrotation Yrotation
        JOINT LeftKnee
        {
            OFFSET 0.0 -31.958600997924805 0.0
            CHANNELS 3 Zrotation Xrotation Yrotation
            JOINT LeftAnkle
            {
                OFFSET 0.0 -30.933473587036133 0.0
                CHANNELS 3 Zrotation Xrotation Yrotation
                JOINT LeftFoot
                {
                    OFFSET 0.0 -9.973124504089355 0.0
                    CHANNELS 3 Zrotation Xrotation Yrotation
                    End Site
                    {
                        OFFSET 0.0 0.0 3.9892497062683105
                    }
                }
            }
        }
    }
    JOINT RightHip
    {
        OFFSET -7.646137714385986 0.0 0.0
        CHANNELS 3 Zrotation Xrotation Yrotation
        JOINT RightKnee
        {
            OFFSET 0.0 -31.958600997924805 0.0
            CHANNELS 3 Zrotation Xrotation Yrotation
            JOINT RightAnkle
            {
                OFFSET 0.0 -30.933473587036133 0.0
                CHANNELS 3 Zrotation Xrotation Yrotation
                JOINT RightFoot
                {
                    OFFSET 0.0 -9.973124504089355 0.0
                    CHANNELS 3 Zrotation Xrotation Yrotation
                    End Site
                    {
                        OFFSET 0.0 0.0 3.9892497062683105
                    }
                }
            }
        }
    }
}
MOTION
Frames: 4
Frame Time: 0.03333333333333333
10.108200073242188 -11.813499450683594 -272.4255065917969 0.4731358290633713 0.8321319659895204 179.62356778808575 -0.08834574114322588 -1.7870984982765823 -0.012624769696480503 -4.050725403611401e-08 7.747760608758306e-08 1.0646810144790906 -74.77482182097548 -39.31987616766954 8.477284258662408 -1.7009584590772692e-06 -4.11959609015787e-06 15.741802481425516 -179.9999917733375 -79.56208769335801 -157.30002422016034 6.3611093629270335e-15 1.5902773407317584e-15 -8.827812596100317e-32 75.87470415823609 -35.77204915601679 -4.619849365376175 -1.8053325019260605e-07 -1.412314052485049e-06 -21.643865410573813 1.8952189630998923e-05 -80.00773749637875 -5.040812600537667 8.827812596100317e-32 3.1805546814635168e-15 -3.1805546814635168e-15 5.031206406059607 -11.782804670033874 26.535385521263994 3.366604853681171 10.558515199311568 -0.15564700270196588 27.279158649600404 45.35019785222929 -20.811102347471916 7.951386703658794e-16 8.276074308844047e-33 1.1927080055488192e-15 -1.7157420338982272 -12.909903525839846 -26.671285494972814 -4.571643817605125 9.164537661632856 -0.15703543665435513 -40.73215533982717 31.870844732371797 23.71476138609033 -7.951386703658792e-16 -1.1034765745125397e-32 1.5902773407317584e-15
10.077400207519531 -11.827600479125977 -272.406494140625 0.45531155299662573 0.8214286798451984 179.9411266541282 -0.09894632575364683 -1.7883342122821448 -0.011441053817681625 -8.608792267702038e-08 -2.74864742013757e-08 0.8095962857838676 -74.34903354710713 -40.67309202735045 8.840099150581608 -3.875959014750679e-06 1.8310120990064896e-06 15.447094434580166 179.99968352403764 -89.6576742284825 -158.75137161944357 0.0 0.0 6.3611093629270335e-15 76.44642783467718 -25.360540850703845 -4.179878543783086 1.0550977410505167e-06 3.530534022730147e-07 -23.028111036467852 -2.566442480553834e-06 -28.246401752052815 -6.115810746094538 -7.95138670365879e-15 1.5902773407317584e-15 -4.770832022195274e-15 4.909568668690525 -11.896471566829206 26.491043654182462 3.437512244618456 10.583501719606392 -0.1539625134904451 27.64943350607573 45.31061798790996 -21.085447713400374 -2.3854160110976376e-15 8.276074308844047e-33 -3.975693351829396e-16 -1.8424343426586236 -12.905873557837248 -26.819138119932212 -4.571468314054863 9.276687701236337 -0.14944818364214674 -40.68844061844539 31.758851288517405 23.6593132975048 -3.1805546814635168e-15 -4.4139062980501586e-32 1.5902773407317584e-15
10.0556001663208 -11.832099914550781 -272.39288330078125 0.44979456093027975 0.8170620987376719 -179.900527525236 -0.10493762335130437 -1.7902144000013622 -0.010633282969297326 -5.995459293109894e-08 -1.7925653527812434e-07 0.8449111931336744 -74.25272071270093 -41.385795802321915 9.00950752752017 -1.0199827460169107e-06 -1.4534525406348626e-06 15.199117498704565 179.99998506573112 -83.74895250304944 -160.77217392152247 6.3611093629270335e-15 0.0 0.0 74.41332161166083 -13.51082966167924 -4.736573827196803 5.986591376462758e-06 3.6850398569445663e-06 -26.42103923030589 -2.653089771955147e-06 -74.92237429042231 -10.584210284028718 0.0 0.0 -3.1805546814635168e-15 4.858855942347006 -11.969921662215633 26.446095580656937 3.465520904106134 10.683669903299002 -0.15479816309431293 27.645125433038626 45.11232523362604 -21.013225656963748 -7.951386703658791e-16 -6.3611093629270335e-15 1.1927080055488188e-15 -1.8877809907652132 -12.900139445962896 -26.854251445160656 -4.608091583795607 9.346156180493894 -0.1426124346881603 -40.78881191247281 31.818784761379302 23.806413516291894 -7.951386703658792e-16 -1.1034765745125397e-32 1.5902773407317584e-15
10.025899887084961 -11.8371000289917 -272.3965759277344 0.4502653596951305 0.8169055107057821 -179.59169492465347 -0.11095363749681676 -1.7890104816055588 -0.010801523438870126 9.06982885370438e-09 3.389221525021148e-07 0.7425598104868488 -74.18338946742239 -41.72791237465006 9.058973615342309 1.7019789052145837e-06 2.3492289217949536e-06 15.145640364011157 179.99998506697682 -85.16993299004362 -159.19085554168444 6.3611093629270335e-15 -1.5902773407317584e-15 -3.1805546814635168e-15 72.4817177195435 -0.2147668240692485 -5.447042194120386 1.8299296328697683e-06 1.050292815403953e-06 -33.416281385842304 -6.652728200897664e-06 -78.5769159632428 -17.122890080710228 0.0 0.0 -4.770832022195275e-15 4.727487477288417 -12.057840531221764 26.295953982398515 3.5579685601670317 10.669379767020674 -0.15071743035715646 27.91006181291265 45.080081003420055 -21.197841313259488 0.0 0.0 1.5902773407317584e-15 -2.0246554520600473 -12.86475019244886 -26.940531885829753 -4.5007593701546895 9.411577640478084 -0.1406688941854085 -40.68114882197322 31.851926189500404 23.758756058808054 -4.770832022195274e-15 6.620859447075238e-32 -1.5902773407317582e-15
